<?xml version="1.0" encoding="UTF-8"?>
<svg id="Layer_1" data-name="Layer 1" xmlns="http://www.w3.org/2000/svg" viewBox="0 0 31.28 31.28">
  <defs>
    <style>
      .cls-1 {
        fill: #fff;
      }
    </style>
  </defs>
  <path class="cls-1" d="M31.28,28.84V12.34c0-.77-.36-1.49-.97-1.95L17.1,.49c-.86-.65-2.05-.65-2.92,0L.97,10.39c-.61,.46-.97,1.18-.97,1.95V28.84c0,1.34,1.09,2.43,2.43,2.43H7.99c1.34,0,2.43-1.09,2.43-2.43v-7.3c0-1.34,1.09-2.43,2.43-2.43h5.56c1.34,0,2.43,1.09,2.43,2.43v7.3c0,1.34,1.09,2.43,2.43,2.43h5.56c1.34,0,2.43-1.09,2.43-2.43Z"/>
</svg>